<svg xmlns="http://www.w3.org/2000/svg" xmlns:xlink="http://www.w3.org/1999/xlink" width="500" zoomAndPan="magnify" viewBox="0 0 375 374.999991" height="500" preserveAspectRatio="xMidYMid meet" version="1.2"><g id="d7b28aedc7"><path style=" stroke:none;fill-rule:evenodd;fill:#5f6fff;fill-opacity:1;" d="M 185.414062 36.328125 C 195.703125 36.328125 209.699219 33.105469 221.613281 32.480469 C 258.269531 30.511719 295.863281 36.839844 317.355469 65.457031 C 345.035156 102.339844 331.523438 161.316406 311.226562 198.683594 C 289.023438 239.558594 263.65625 263.929688 230.191406 289.011719 C 221.46875 295.539062 217.367188 300.355469 209.613281 301.351562 C 202.855469 294.542969 193.480469 290.324219 183.132812 290.324219 C 162.523438 290.324219 145.820312 307.027344 145.820312 327.632812 C 145.820312 348.242188 162.523438 364.945312 183.132812 364.945312 C 203.597656 364.945312 220.214844 348.441406 220.414062 328.003906 C 222.410156 326.835938 225.117188 325.296875 228.996094 323.015625 C 238.429688 317.488281 247.4375 312.015625 255.105469 306.285156 L 278.621094 286.960938 C 343.75 231.660156 390.726562 117.332031 321.546875 53.570312 C 274.117188 9.847656 201.632812 35.898438 185.414062 36.328125 Z M 185.414062 36.328125 "/><path style=" stroke:none;fill-rule:evenodd;fill:#5f6fff;fill-opacity:1;" d="M 169.820312 283.425781 C 151.207031 272.308594 141.574219 271.964844 116.292969 252.726562 C 60.824219 210.597656 29.042969 135.632812 72.566406 79.339844 C 106 36.070312 180.597656 65.117188 194.421875 82.816406 C 196.445312 85.4375 197.753906 88.546875 198.695312 91.9375 C 197.183594 95.984375 196.359375 100.347656 196.359375 104.90625 C 196.359375 125.515625 213.0625 142.21875 233.667969 142.21875 C 254.277344 142.21875 270.980469 125.515625 270.980469 104.90625 C 270.980469 84.296875 254.277344 67.59375 233.667969 67.59375 C 230.363281 67.59375 227.140625 68.023438 224.09375 68.847656 C 221.15625 67.453125 217.28125 65.371094 211.894531 62.238281 C 193.480469 51.519531 175.550781 41.398438 150.894531 37.523438 C 122.675781 33.078125 102.636719 36.296875 81.175781 48.183594 C 0.0234375 93.25 24.28125 184.917969 84.851562 239.84375 C 102.296875 255.691406 148.128906 278.976562 169.820312 283.425781 Z M 169.820312 283.425781 "/><path style=" stroke:none;fill-rule:evenodd;fill:#5f6fff;fill-opacity:1;" d="M 126.78125 134.40625 C 85.933594 134.40625 93.488281 125.941406 93.773438 168.070312 L 126.753906 168.78125 L 126.78125 201.761719 L 161.042969 201.703125 L 161.042969 169.351562 L 193.992188 168.640625 L 194.078125 134.523438 L 161.382812 134.351562 L 161.015625 101.429688 L 126.78125 101.429688 Z M 126.78125 134.40625 "/></g></svg>