<svg xmlns="http://www.w3.org/2000/svg" xmlns:xlink="http://www.w3.org/1999/xlink" width="300" zoomAndPan="magnify" viewBox="0 0 224.87999 74.999997" height="100" preserveAspectRatio="xMidYMid meet" version="1.2"><defs><clipPath id="499b075856"><path d="M 29 10 L 67 10 L 67 70.429688 L 29 70.429688 Z M 29 10 "/></clipPath></defs><g id="4c14ed7597"><g clip-rule="nonzero" clip-path="url(#499b075856)"><path style=" stroke:none;fill-rule:evenodd;fill:#5f6fff;fill-opacity:1;" d="M 36.519531 12.195312 C 38.339844 12.195312 40.8125 11.625 42.917969 11.515625 C 49.394531 11.167969 56.039062 12.285156 59.839844 17.34375 C 64.730469 23.863281 62.34375 34.285156 58.753906 40.890625 C 54.832031 48.113281 50.347656 52.421875 44.433594 56.855469 C 42.890625 58.007812 42.167969 58.859375 40.796875 59.035156 C 39.601562 57.832031 37.945312 57.085938 36.117188 57.085938 C 32.476562 57.085938 29.523438 60.039062 29.523438 63.679688 C 29.523438 67.320312 32.476562 70.273438 36.117188 70.273438 C 39.734375 70.273438 42.671875 67.355469 42.707031 63.746094 C 43.058594 63.539062 43.539062 63.265625 44.222656 62.863281 C 45.890625 61.886719 47.480469 60.917969 48.835938 59.90625 L 52.992188 56.492188 C 64.503906 46.71875 72.804688 26.511719 60.578125 15.242188 C 52.195312 7.515625 39.386719 12.121094 36.519531 12.195312 Z M 36.519531 12.195312 "/></g><path style=" stroke:none;fill-rule:evenodd;fill:#5f6fff;fill-opacity:1;" d="M 33.765625 55.867188 C 30.476562 53.902344 28.773438 53.839844 24.304688 50.441406 C 14.5 42.996094 8.882812 29.746094 16.578125 19.796875 C 22.484375 12.152344 35.667969 17.285156 38.113281 20.410156 C 38.46875 20.875 38.703125 21.425781 38.867188 22.023438 C 38.601562 22.738281 38.453125 23.511719 38.453125 24.316406 C 38.453125 27.957031 41.40625 30.910156 45.046875 30.910156 C 48.691406 30.910156 51.644531 27.957031 51.644531 24.316406 C 51.644531 20.675781 48.691406 17.722656 45.046875 17.722656 C 44.464844 17.722656 43.894531 17.796875 43.355469 17.945312 C 42.835938 17.695312 42.152344 17.328125 41.199219 16.773438 C 37.945312 14.882812 34.777344 13.09375 30.417969 12.40625 C 25.433594 11.621094 21.890625 12.191406 18.097656 14.292969 C 3.757812 22.253906 8.042969 38.457031 18.746094 48.164062 C 21.832031 50.964844 29.929688 55.082031 33.765625 55.867188 Z M 33.765625 55.867188 "/><path style=" stroke:none;fill-rule:evenodd;fill:#5f6fff;fill-opacity:1;" d="M 26.15625 29.53125 C 18.9375 29.53125 20.273438 28.035156 20.324219 35.480469 L 26.152344 35.605469 L 26.15625 41.433594 L 32.214844 41.421875 L 32.214844 35.707031 L 38.035156 35.582031 L 38.050781 29.550781 L 32.273438 29.519531 L 32.207031 23.703125 L 26.15625 23.703125 Z M 26.15625 29.53125 "/><g style="fill:#ffffff;fill-opacity:1;"><g transform="translate(67.939081, 44.226677)"><path style="stroke:none" d="M 3.414062 2.613281 C 2.789062 2.613281 2.210938 2.523438 1.683594 2.339844 C 1.046875 2.125 0.5 1.785156 0.0390625 1.324219 C -0.417969 0.867188 -0.753906 0.324219 -0.972656 -0.300781 C -1.15625 -0.832031 -1.25 -1.40625 -1.25 -2.027344 L -1.25 -13.007812 C -1.25 -13.628906 -1.15625 -14.203125 -0.972656 -14.734375 C -0.753906 -15.363281 -0.417969 -15.902344 0.0390625 -16.359375 C 0.5 -16.820312 1.046875 -17.160156 1.683594 -17.375 C 2.210938 -17.558594 2.789062 -17.648438 3.414062 -17.648438 L 7.59375 -17.648438 C 10.886719 -17.648438 13.496094 -16.765625 15.425781 -15 C 16.441406 -14.070312 17.199219 -12.953125 17.703125 -11.648438 C 18.179688 -10.421875 18.417969 -9.046875 18.417969 -7.527344 C 18.417969 -6 18.167969 -4.617188 17.675781 -3.375 C 17.164062 -2.078125 16.414062 -0.972656 15.425781 -0.0585938 C 14.449219 0.847656 13.273438 1.527344 11.894531 1.980469 C 10.613281 2.402344 9.179688 2.613281 7.59375 2.613281 Z M 3.414062 -2.613281 L 7.59375 -2.613281 C 8.621094 -2.613281 9.511719 -2.738281 10.261719 -2.984375 C 10.917969 -3.199219 11.453125 -3.5 11.871094 -3.886719 C 12.277344 -4.265625 12.59375 -4.738281 12.820312 -5.304688 C 13.066406 -5.925781 13.191406 -6.667969 13.191406 -7.527344 C 13.191406 -8.398438 13.070312 -9.144531 12.828125 -9.765625 C 12.621094 -10.308594 12.308594 -10.769531 11.894531 -11.144531 C 10.964844 -11.996094 9.53125 -12.421875 7.59375 -12.421875 L 3.414062 -12.421875 C 3.375 -12.421875 3.34375 -12.421875 3.324219 -12.417969 C 3.335938 -12.417969 3.351562 -12.425781 3.375 -12.433594 C 3.503906 -12.476562 3.625 -12.554688 3.734375 -12.664062 C 3.84375 -12.773438 3.917969 -12.890625 3.964844 -13.019531 C 3.972656 -13.046875 3.980469 -13.066406 3.980469 -13.082031 C 3.980469 -13.066406 3.976562 -13.042969 3.976562 -13.007812 L 3.976562 -2.027344 C 3.976562 -1.992188 3.980469 -1.96875 3.980469 -1.953125 C 3.980469 -1.96875 3.972656 -1.988281 3.964844 -2.015625 C 3.917969 -2.144531 3.84375 -2.261719 3.734375 -2.371094 C 3.625 -2.480469 3.503906 -2.558594 3.375 -2.601562 C 3.351562 -2.609375 3.335938 -2.617188 3.324219 -2.617188 C 3.34375 -2.613281 3.375 -2.613281 3.414062 -2.613281 Z M 5.289062 -5.789062 L 7.335938 -5.789062 C 7.804688 -5.789062 8.175781 -5.835938 8.453125 -5.929688 C 8.621094 -5.988281 8.746094 -6.054688 8.824219 -6.132812 C 8.882812 -6.191406 8.9375 -6.289062 8.980469 -6.425781 C 9.070312 -6.699219 9.117188 -7.066406 9.117188 -7.527344 C 9.117188 -7.984375 9.070312 -8.355469 8.976562 -8.632812 C 8.929688 -8.773438 8.878906 -8.871094 8.820312 -8.925781 C 8.753906 -8.992188 8.636719 -9.054688 8.476562 -9.105469 C 8.183594 -9.199219 7.804688 -9.246094 7.335938 -9.246094 L 5.289062 -9.246094 L 5.289062 -11.859375 L 7.902344 -11.859375 L 7.902344 -3.175781 L 5.289062 -3.175781 Z M 2.675781 -0.566406 L 2.675781 -14.46875 L 7.335938 -14.46875 C 9.519531 -14.46875 11.230469 -13.871094 12.460938 -12.675781 C 13.714844 -11.460938 14.34375 -9.742188 14.34375 -7.527344 C 14.34375 -6.511719 14.210938 -5.597656 13.945312 -4.792969 C 13.636719 -3.847656 13.148438 -3.050781 12.480469 -2.398438 C 11.835938 -1.765625 11.046875 -1.292969 10.125 -0.980469 C 9.304688 -0.703125 8.375 -0.566406 7.335938 -0.566406 Z M 2.675781 -0.566406 "/></g></g><g style="fill:#ffffff;fill-opacity:1;"><g transform="translate(83.527633, 44.226677)"><path style="stroke:none" d="M 8.617188 2.847656 C 6.640625 2.847656 4.875 2.414062 3.328125 1.542969 C 1.738281 0.648438 0.503906 -0.601562 -0.367188 -2.207031 C -1.210938 -3.761719 -1.632812 -5.535156 -1.632812 -7.527344 C -1.632812 -9.015625 -1.394531 -10.382812 -0.917969 -11.636719 C -0.421875 -12.933594 0.289062 -14.050781 1.222656 -14.996094 C 2.160156 -15.945312 3.273438 -16.667969 4.558594 -17.164062 C 5.800781 -17.644531 7.152344 -17.882812 8.617188 -17.882812 C 10.589844 -17.882812 12.347656 -17.453125 13.890625 -16.589844 C 15.46875 -15.707031 16.699219 -14.46875 17.578125 -12.875 C 18.433594 -11.324219 18.863281 -9.542969 18.863281 -7.527344 C 18.863281 -6.042969 18.625 -4.671875 18.148438 -3.421875 C 17.65625 -2.128906 16.945312 -1.007812 16.015625 -0.0585938 C 15.078125 0.902344 13.960938 1.628906 12.671875 2.128906 C 11.429688 2.609375 10.078125 2.847656 8.617188 2.847656 Z M 8.617188 -2.378906 C 9.429688 -2.378906 10.152344 -2.5 10.789062 -2.746094 C 11.375 -2.972656 11.871094 -3.296875 12.285156 -3.714844 C 12.703125 -4.144531 13.03125 -4.667969 13.265625 -5.28125 C 13.511719 -5.933594 13.636719 -6.683594 13.636719 -7.527344 C 13.636719 -8.644531 13.425781 -9.582031 13.003906 -10.347656 C 12.605469 -11.074219 12.050781 -11.632812 11.339844 -12.03125 C 10.589844 -12.449219 9.683594 -12.65625 8.617188 -12.65625 C 7.804688 -12.65625 7.078125 -12.535156 6.445312 -12.289062 C 5.855469 -12.058594 5.351562 -11.738281 4.9375 -11.320312 C 4.523438 -10.898438 4.199219 -10.386719 3.96875 -9.777344 C 3.71875 -9.125 3.59375 -8.375 3.59375 -7.527344 C 3.59375 -6.421875 3.804688 -5.476562 4.226562 -4.703125 C 4.621094 -3.976562 5.171875 -3.414062 5.886719 -3.015625 C 6.640625 -2.589844 7.550781 -2.378906 8.617188 -2.378906 Z M 8.617188 -5.664062 C 8.835938 -5.664062 8.988281 -5.691406 9.074219 -5.746094 C 9.171875 -5.816406 9.261719 -5.945312 9.347656 -6.140625 C 9.492188 -6.484375 9.5625 -6.945312 9.5625 -7.527344 C 9.5625 -7.988281 9.519531 -8.375 9.429688 -8.6875 C 9.371094 -8.898438 9.292969 -9.0625 9.199219 -9.179688 C 9.148438 -9.242188 9.097656 -9.285156 9.046875 -9.308594 C 8.949219 -9.351562 8.804688 -9.371094 8.617188 -9.371094 C 8.394531 -9.371094 8.234375 -9.339844 8.136719 -9.277344 C 8.042969 -9.214844 7.957031 -9.09375 7.882812 -8.917969 C 7.738281 -8.585938 7.667969 -8.121094 7.667969 -7.527344 C 7.667969 -7.066406 7.710938 -6.679688 7.800781 -6.363281 C 7.863281 -6.148438 7.941406 -5.980469 8.039062 -5.855469 C 8.089844 -5.792969 8.140625 -5.75 8.191406 -5.726562 C 8.289062 -5.683594 8.429688 -5.664062 8.617188 -5.664062 Z M 8.617188 -0.4375 C 7.679688 -0.4375 6.820312 -0.613281 6.042969 -0.964844 C 5.21875 -1.335938 4.519531 -1.882812 3.945312 -2.609375 C 2.941406 -3.875 2.441406 -5.515625 2.441406 -7.527344 C 2.441406 -8.839844 2.65625 -9.992188 3.082031 -10.980469 C 3.574219 -12.125 4.304688 -13.015625 5.277344 -13.652344 C 6.246094 -14.28125 7.359375 -14.597656 8.617188 -14.597656 C 9.550781 -14.597656 10.402344 -14.425781 11.179688 -14.078125 C 12.003906 -13.710938 12.703125 -13.164062 13.28125 -12.445312 C 14.285156 -11.1875 14.789062 -9.546875 14.789062 -7.527344 C 14.789062 -6.234375 14.578125 -5.089844 14.15625 -4.09375 C 13.667969 -2.953125 12.949219 -2.0625 12 -1.417969 C 11.03125 -0.765625 9.902344 -0.4375 8.617188 -0.4375 Z M 8.617188 -0.4375 "/></g></g><g style="fill:#ffffff;fill-opacity:1;"><g transform="translate(99.564016, 44.226677)"><path style="stroke:none" d="M 8.957031 2.847656 C 6.855469 2.847656 5.015625 2.425781 3.4375 1.578125 C 1.78125 0.691406 0.515625 -0.5625 -0.367188 -2.1875 C -1.210938 -3.742188 -1.632812 -5.523438 -1.632812 -7.527344 C -1.632812 -9.015625 -1.394531 -10.382812 -0.917969 -11.636719 C -0.421875 -12.941406 0.308594 -14.066406 1.265625 -15.015625 C 2.222656 -15.964844 3.375 -16.6875 4.71875 -17.179688 C 6 -17.648438 7.410156 -17.882812 8.957031 -17.882812 C 9.792969 -17.882812 10.652344 -17.789062 11.535156 -17.601562 C 12.492188 -17.398438 13.355469 -17.085938 14.125 -16.660156 C 15.003906 -16.1875 15.648438 -15.53125 16.050781 -14.691406 C 16.433594 -13.886719 16.5625 -13.050781 16.4375 -12.183594 C 16.324219 -11.410156 16.039062 -10.714844 15.582031 -10.09375 C 15.035156 -9.351562 14.324219 -8.851562 13.449219 -8.59375 C 12.9375 -8.441406 12.410156 -8.402344 11.871094 -8.476562 C 11.414062 -8.539062 10.960938 -8.679688 10.519531 -8.902344 L 11.6875 -11.238281 L 10.582031 -8.871094 C 10.304688 -9 10.035156 -9.097656 9.773438 -9.164062 C 9.566406 -9.21875 9.34375 -9.246094 9.105469 -9.246094 C 8.683594 -9.246094 8.378906 -9.191406 8.1875 -9.082031 C 8.082031 -9.023438 7.996094 -8.925781 7.933594 -8.789062 C 7.800781 -8.5 7.730469 -8.082031 7.730469 -7.527344 C 7.730469 -6.972656 7.800781 -6.542969 7.9375 -6.246094 C 8.003906 -6.109375 8.085938 -6.011719 8.1875 -5.953125 C 8.378906 -5.84375 8.683594 -5.789062 9.105469 -5.789062 C 9.289062 -5.789062 9.503906 -5.816406 9.746094 -5.871094 C 9.972656 -5.917969 10.195312 -5.996094 10.421875 -6.105469 L 10.472656 -6.128906 L 10.519531 -6.152344 C 11.492188 -6.574219 12.433594 -6.667969 13.347656 -6.433594 C 14.242188 -6.207031 14.976562 -5.738281 15.546875 -5.03125 C 16.035156 -4.421875 16.347656 -3.726562 16.480469 -2.945312 C 16.628906 -2.082031 16.515625 -1.242188 16.144531 -0.429688 C 15.75 0.429688 15.113281 1.097656 14.226562 1.574219 L 12.988281 -0.726562 L 14.332031 1.515625 C 13.601562 1.953125 12.734375 2.289062 11.734375 2.523438 C 10.808594 2.738281 9.882812 2.847656 8.957031 2.847656 Z M 8.957031 -2.378906 C 9.480469 -2.378906 10.011719 -2.441406 10.550781 -2.566406 C 11.015625 -2.675781 11.378906 -2.808594 11.644531 -2.964844 L 11.695312 -2.996094 L 11.75 -3.027344 C 11.703125 -3 11.652344 -2.960938 11.597656 -2.90625 C 11.511719 -2.820312 11.441406 -2.714844 11.390625 -2.597656 C 11.316406 -2.4375 11.296875 -2.261719 11.328125 -2.066406 C 11.347656 -1.953125 11.398438 -1.847656 11.476562 -1.75 C 11.632812 -1.554688 11.824219 -1.429688 12.054688 -1.371094 C 12.210938 -1.332031 12.359375 -1.320312 12.503906 -1.339844 C 12.539062 -1.34375 12.574219 -1.351562 12.601562 -1.359375 L 12.597656 -1.355469 L 11.558594 -3.753906 L 12.695312 -1.398438 C 12.097656 -1.109375 11.484375 -0.898438 10.855469 -0.761719 C 10.246094 -0.628906 9.664062 -0.566406 9.105469 -0.566406 C 7.765625 -0.566406 6.601562 -0.84375 5.613281 -1.40625 C 4.535156 -2.015625 3.726562 -2.898438 3.195312 -4.054688 C 2.734375 -5.050781 2.503906 -6.207031 2.503906 -7.527344 C 2.503906 -8.851562 2.738281 -10.011719 3.199219 -11 C 3.734375 -12.144531 4.535156 -13.023438 5.613281 -13.628906 C 6.601562 -14.191406 7.765625 -14.46875 9.105469 -14.46875 C 9.78125 -14.46875 10.429688 -14.390625 11.0625 -14.230469 C 11.640625 -14.082031 12.21875 -13.875 12.792969 -13.605469 L 12.824219 -13.59375 L 12.855469 -13.578125 C 12.78125 -13.613281 12.6875 -13.640625 12.570312 -13.65625 C 12.371094 -13.683594 12.171875 -13.664062 11.96875 -13.605469 C 11.722656 -13.53125 11.523438 -13.394531 11.375 -13.195312 C 11.316406 -13.113281 11.277344 -13.027344 11.265625 -12.9375 C 11.238281 -12.753906 11.261719 -12.585938 11.335938 -12.4375 C 11.390625 -12.320312 11.460938 -12.222656 11.542969 -12.140625 C 11.582031 -12.101562 11.597656 -12.085938 11.597656 -12.085938 C 11.28125 -12.261719 10.902344 -12.394531 10.453125 -12.488281 C 9.925781 -12.601562 9.429688 -12.65625 8.957031 -12.65625 C 8.03125 -12.65625 7.21875 -12.527344 6.519531 -12.273438 C 5.886719 -12.039062 5.359375 -11.71875 4.941406 -11.300781 C 4.519531 -10.882812 4.195312 -10.375 3.96875 -9.777344 C 3.71875 -9.125 3.59375 -8.375 3.59375 -7.527344 C 3.59375 -6.40625 3.804688 -5.457031 4.226562 -4.679688 C 4.609375 -3.972656 5.167969 -3.421875 5.90625 -3.027344 C 6.714844 -2.59375 7.730469 -2.378906 8.957031 -2.378906 Z M 8.957031 -2.378906 "/></g></g><g style="fill:#ffffff;fill-opacity:1;"><g transform="translate(113.062676, 44.226677)"><path style="stroke:none" d="M 2.070312 2.804688 C 1.085938 2.804688 0.21875 2.546875 -0.523438 2.03125 C -0.957031 1.734375 -1.3125 1.371094 -1.59375 0.9375 C -1.871094 0.515625 -2.058594 0.0429688 -2.160156 -0.46875 C -2.335938 -1.363281 -2.214844 -2.289062 -1.796875 -3.242188 L -1.785156 -3.269531 L 3.539062 -14.730469 C 3.996094 -15.71875 4.613281 -16.476562 5.386719 -17.003906 C 6.207031 -17.5625 7.128906 -17.839844 8.148438 -17.839844 C 9.183594 -17.839844 10.109375 -17.554688 10.921875 -16.976562 C 11.652344 -16.464844 12.246094 -15.730469 12.714844 -14.773438 L 18.042969 -3.296875 L 15.675781 -2.195312 L 18.011719 -3.367188 C 18.496094 -2.398438 18.65625 -1.449219 18.496094 -0.515625 C 18.40625 0.0078125 18.226562 0.484375 17.953125 0.914062 C 17.671875 1.367188 17.308594 1.746094 16.859375 2.050781 C 16.125 2.554688 15.273438 2.804688 14.308594 2.804688 C 13.109375 2.804688 12.113281 2.472656 11.320312 1.8125 C 10.695312 1.285156 10.179688 0.546875 9.773438 -0.40625 L 4.921875 -11.820312 L 20.542969 -0.4375 L -4.382812 -0.4375 L 11.304688 -11.707031 L 6.5 -0.40625 C 6.089844 0.507812 5.621094 1.210938 5.101562 1.703125 C 4.328125 2.4375 3.316406 2.804688 2.070312 2.804688 Z M 2.070312 -2.421875 C 2.09375 -2.421875 2.109375 -2.421875 2.113281 -2.421875 C 2.089844 -2.417969 2.058594 -2.410156 2.019531 -2.398438 C 1.839844 -2.34375 1.667969 -2.238281 1.507812 -2.089844 C 1.488281 -2.070312 1.472656 -2.054688 1.464844 -2.042969 C 1.472656 -2.054688 1.484375 -2.074219 1.503906 -2.097656 C 1.566406 -2.199219 1.628906 -2.316406 1.691406 -2.453125 L 2.839844 -5.160156 L 5.246094 -4.136719 L 6.769531 -2.015625 L 5.257812 -0.925781 L 3.730469 -3.050781 L 3.730469 -5.664062 L 12.519531 -5.664062 L 12.519531 -3.050781 L 10.980469 -0.9375 L 9.488281 -2.027344 L 11.027344 -4.136719 L 13.429688 -5.160156 L 14.582031 -2.449219 C 14.640625 -2.316406 14.691406 -2.210938 14.742188 -2.136719 C 14.746094 -2.128906 14.75 -2.125 14.753906 -2.121094 C 14.753906 -2.121094 14.753906 -2.121094 14.75 -2.125 C 14.730469 -2.148438 14.707031 -2.171875 14.675781 -2.195312 C 14.550781 -2.300781 14.421875 -2.375 14.289062 -2.410156 C 14.265625 -2.417969 14.25 -2.421875 14.238281 -2.425781 C 14.253906 -2.421875 14.277344 -2.421875 14.308594 -2.421875 C 14.285156 -2.421875 14.25 -2.414062 14.203125 -2.402344 C 14.101562 -2.375 14.007812 -2.328125 13.914062 -2.265625 C 13.757812 -2.15625 13.628906 -2.019531 13.523438 -1.855469 C 13.429688 -1.707031 13.371094 -1.558594 13.34375 -1.40625 C 13.324219 -1.273438 13.320312 -1.148438 13.34375 -1.039062 C 13.347656 -1.015625 13.351562 -0.996094 13.355469 -0.984375 C 13.355469 -0.996094 13.347656 -1.007812 13.335938 -1.027344 L 13.320312 -1.0625 L 8.015625 -12.484375 C 7.960938 -12.597656 7.910156 -12.679688 7.863281 -12.738281 C 7.859375 -12.746094 7.855469 -12.75 7.851562 -12.753906 L 7.855469 -12.75 C 7.871094 -12.738281 7.886719 -12.722656 7.910156 -12.707031 C 7.957031 -12.675781 8.011719 -12.648438 8.070312 -12.628906 C 8.105469 -12.621094 8.128906 -12.613281 8.148438 -12.613281 C 8.199219 -12.613281 8.257812 -12.636719 8.324219 -12.683594 C 8.363281 -12.707031 8.386719 -12.726562 8.394531 -12.738281 C 8.363281 -12.695312 8.324219 -12.625 8.277344 -12.527344 L 2.96875 -1.097656 L 0.597656 -2.195312 L 2.992188 -1.148438 C 2.980469 -1.128906 2.976562 -1.113281 2.972656 -1.101562 C 2.976562 -1.113281 2.980469 -1.125 2.980469 -1.144531 C 2.996094 -1.242188 2.992188 -1.351562 2.96875 -1.472656 C 2.941406 -1.625 2.878906 -1.769531 2.789062 -1.910156 C 2.691406 -2.054688 2.578125 -2.175781 2.445312 -2.265625 C 2.351562 -2.332031 2.257812 -2.375 2.164062 -2.402344 C 2.117188 -2.414062 2.085938 -2.421875 2.070312 -2.421875 Z M 10.515625 -9.929688 L 6.015625 0.8125 L 0.484375 -8.667969 L 15.789062 -8.667969 L 10.265625 0.796875 L 5.738281 -9.925781 L 8.148438 -10.941406 L 8.148438 -8.328125 L 8.105469 -8.328125 L 8.105469 -10.941406 Z M 6.367188 -13.554688 L 9.878906 -13.554688 L 13.050781 -6.050781 L 10.640625 -5.03125 L 8.386719 -6.351562 L 8.980469 -7.375 L 11.238281 -6.058594 L 11.238281 -3.445312 L 5.03125 -3.445312 L 5.03125 -6.058594 L 7.289062 -7.375 L 7.886719 -6.351562 L 5.628906 -5.03125 L 3.21875 -6.042969 L 5.695312 -11.949219 Z M 6.367188 -13.554688 "/></g></g><g style="fill:#ffffff;fill-opacity:1;"><g transform="translate(128.160742, 44.226677)"><path style="stroke:none" d="M 3.328125 2.804688 C 2.710938 2.804688 2.136719 2.710938 1.609375 2.519531 C 0.992188 2.296875 0.460938 1.957031 0.0117188 1.496094 C -0.433594 1.046875 -0.757812 0.515625 -0.972656 -0.09375 C -1.15625 -0.617188 -1.25 -1.183594 -1.25 -1.792969 L -1.25 -13.050781 C -1.25 -13.671875 -1.15625 -14.246094 -0.96875 -14.773438 C -0.746094 -15.398438 -0.402344 -15.9375 0.0585938 -16.390625 C 0.511719 -16.832031 1.039062 -17.160156 1.648438 -17.375 C 2.171875 -17.558594 2.738281 -17.648438 3.347656 -17.648438 L 8.59375 -17.648438 C 10.992188 -17.648438 12.90625 -16.976562 14.339844 -15.628906 C 15.09375 -14.917969 15.660156 -14.078125 16.035156 -13.105469 C 16.386719 -12.199219 16.5625 -11.203125 16.5625 -10.109375 C 16.5625 -9.015625 16.386719 -8.015625 16.035156 -7.113281 C 15.660156 -6.140625 15.09375 -5.296875 14.339844 -4.589844 C 12.90625 -3.242188 10.992188 -2.570312 8.59375 -2.570312 L 5.289062 -2.570312 L 5.289062 -5.183594 L 7.902344 -5.183594 L 7.902344 -1.792969 C 7.902344 -1.195312 7.816406 -0.636719 7.644531 -0.125 C 7.441406 0.480469 7.128906 1.007812 6.703125 1.457031 C 6.25 1.941406 5.703125 2.296875 5.058594 2.523438 C 4.53125 2.710938 3.953125 2.804688 3.328125 2.804688 Z M 3.328125 -2.421875 C 3.359375 -2.421875 3.382812 -2.421875 3.394531 -2.425781 C 3.371094 -2.421875 3.34375 -2.414062 3.3125 -2.402344 C 3.15625 -2.347656 3.019531 -2.253906 2.894531 -2.117188 C 2.796875 -2.015625 2.730469 -1.90625 2.6875 -1.789062 C 2.679688 -1.761719 2.675781 -1.742188 2.671875 -1.726562 C 2.675781 -1.742188 2.675781 -1.761719 2.675781 -1.792969 L 2.675781 -7.796875 L 8.59375 -7.796875 C 9.609375 -7.796875 10.332031 -7.996094 10.761719 -8.398438 C 10.9375 -8.5625 11.070312 -8.761719 11.160156 -8.996094 C 11.277344 -9.292969 11.335938 -9.664062 11.335938 -10.109375 C 11.335938 -10.550781 11.277344 -10.921875 11.160156 -11.222656 C 11.070312 -11.453125 10.9375 -11.652344 10.761719 -11.820312 C 10.332031 -12.222656 9.609375 -12.421875 8.59375 -12.421875 L 3.347656 -12.421875 C 3.324219 -12.421875 3.308594 -12.421875 3.300781 -12.421875 C 3.320312 -12.421875 3.347656 -12.429688 3.378906 -12.441406 C 3.5 -12.484375 3.613281 -12.554688 3.714844 -12.65625 C 3.828125 -12.769531 3.910156 -12.890625 3.957031 -13.023438 C 3.96875 -13.058594 3.976562 -13.085938 3.980469 -13.105469 C 3.980469 -13.097656 3.976562 -13.078125 3.976562 -13.050781 L 3.976562 -1.792969 C 3.976562 -1.769531 3.980469 -1.753906 3.980469 -1.746094 C 3.976562 -1.765625 3.96875 -1.789062 3.957031 -1.820312 C 3.914062 -1.945312 3.84375 -2.054688 3.742188 -2.160156 C 3.636719 -2.269531 3.515625 -2.347656 3.382812 -2.398438 C 3.34375 -2.410156 3.316406 -2.417969 3.289062 -2.421875 C 3.292969 -2.421875 3.304688 -2.421875 3.328125 -2.421875 Z M 5.289062 -10.800781 L 7.914062 -10.800781 C 8.042969 -10.800781 8.132812 -10.808594 8.1875 -10.824219 C 8.128906 -10.808594 8.058594 -10.769531 7.980469 -10.707031 C 7.832031 -10.585938 7.722656 -10.441406 7.652344 -10.269531 C 7.628906 -10.214844 7.613281 -10.164062 7.605469 -10.117188 C 7.605469 -10.105469 7.601562 -10.097656 7.601562 -10.09375 C 7.601562 -10.09375 7.601562 -10.101562 7.601562 -10.109375 C 7.601562 -10.121094 7.601562 -10.128906 7.601562 -10.132812 C 7.601562 -10.128906 7.601562 -10.125 7.605469 -10.117188 C 7.613281 -10.070312 7.628906 -10.023438 7.648438 -9.96875 C 7.726562 -9.785156 7.84375 -9.632812 8.003906 -9.503906 C 8.082031 -9.445312 8.144531 -9.40625 8.199219 -9.390625 C 8.144531 -9.40625 8.046875 -9.414062 7.914062 -9.414062 L 5.289062 -9.414062 L 5.289062 -12.027344 L 7.902344 -12.027344 L 7.902344 -8.1875 L 5.289062 -8.1875 Z M 2.675781 -5.578125 L 2.675781 -14.640625 L 7.914062 -14.640625 C 9.253906 -14.640625 10.359375 -14.296875 11.234375 -13.613281 C 11.792969 -13.175781 12.207031 -12.621094 12.480469 -11.957031 C 12.714844 -11.394531 12.828125 -10.78125 12.828125 -10.109375 C 12.828125 -9.441406 12.710938 -8.828125 12.480469 -8.269531 C 12.210938 -7.617188 11.800781 -7.070312 11.253906 -6.632812 C 10.378906 -5.929688 9.265625 -5.578125 7.914062 -5.578125 Z M 2.675781 -5.578125 "/></g></g><g style="fill:#ffffff;fill-opacity:1;"><g transform="translate(141.403497, 44.226677)"><path style="stroke:none" d="M 3.328125 2.804688 C 2.710938 2.804688 2.136719 2.710938 1.609375 2.519531 C 0.992188 2.296875 0.460938 1.957031 0.0117188 1.496094 C -0.433594 1.046875 -0.757812 0.515625 -0.972656 -0.09375 C -1.15625 -0.617188 -1.25 -1.183594 -1.25 -1.792969 L -1.25 -13.050781 C -1.25 -13.671875 -1.15625 -14.246094 -0.96875 -14.773438 C -0.746094 -15.398438 -0.402344 -15.9375 0.0585938 -16.390625 C 0.511719 -16.832031 1.039062 -17.160156 1.648438 -17.375 C 2.171875 -17.558594 2.738281 -17.648438 3.347656 -17.648438 L 8.59375 -17.648438 C 10.992188 -17.648438 12.90625 -16.976562 14.339844 -15.628906 C 15.09375 -14.917969 15.660156 -14.078125 16.035156 -13.105469 C 16.386719 -12.199219 16.5625 -11.203125 16.5625 -10.109375 C 16.5625 -9.015625 16.386719 -8.015625 16.035156 -7.113281 C 15.660156 -6.140625 15.09375 -5.296875 14.339844 -4.589844 C 12.90625 -3.242188 10.992188 -2.570312 8.59375 -2.570312 L 5.289062 -2.570312 L 5.289062 -5.183594 L 7.902344 -5.183594 L 7.902344 -1.792969 C 7.902344 -1.195312 7.816406 -0.636719 7.644531 -0.125 C 7.441406 0.480469 7.128906 1.007812 6.703125 1.457031 C 6.25 1.941406 5.703125 2.296875 5.058594 2.523438 C 4.53125 2.710938 3.953125 2.804688 3.328125 2.804688 Z M 3.328125 -2.421875 C 3.359375 -2.421875 3.382812 -2.421875 3.394531 -2.425781 C 3.371094 -2.421875 3.34375 -2.414062 3.3125 -2.402344 C 3.15625 -2.347656 3.019531 -2.253906 2.894531 -2.117188 C 2.796875 -2.015625 2.730469 -1.90625 2.6875 -1.789062 C 2.679688 -1.761719 2.675781 -1.742188 2.671875 -1.726562 C 2.675781 -1.742188 2.675781 -1.761719 2.675781 -1.792969 L 2.675781 -7.796875 L 8.59375 -7.796875 C 9.609375 -7.796875 10.332031 -7.996094 10.761719 -8.398438 C 10.9375 -8.5625 11.070312 -8.761719 11.160156 -8.996094 C 11.277344 -9.292969 11.335938 -9.664062 11.335938 -10.109375 C 11.335938 -10.550781 11.277344 -10.921875 11.160156 -11.222656 C 11.070312 -11.453125 10.9375 -11.652344 10.761719 -11.820312 C 10.332031 -12.222656 9.609375 -12.421875 8.59375 -12.421875 L 3.347656 -12.421875 C 3.324219 -12.421875 3.308594 -12.421875 3.300781 -12.421875 C 3.320312 -12.421875 3.347656 -12.429688 3.378906 -12.441406 C 3.5 -12.484375 3.613281 -12.554688 3.714844 -12.65625 C 3.828125 -12.769531 3.910156 -12.890625 3.957031 -13.023438 C 3.96875 -13.058594 3.976562 -13.085938 3.980469 -13.105469 C 3.980469 -13.097656 3.976562 -13.078125 3.976562 -13.050781 L 3.976562 -1.792969 C 3.976562 -1.769531 3.980469 -1.753906 3.980469 -1.746094 C 3.976562 -1.765625 3.96875 -1.789062 3.957031 -1.820312 C 3.914062 -1.945312 3.84375 -2.054688 3.742188 -2.160156 C 3.636719 -2.269531 3.515625 -2.347656 3.382812 -2.398438 C 3.34375 -2.410156 3.316406 -2.417969 3.289062 -2.421875 C 3.292969 -2.421875 3.304688 -2.421875 3.328125 -2.421875 Z M 5.289062 -10.800781 L 7.914062 -10.800781 C 8.042969 -10.800781 8.132812 -10.808594 8.1875 -10.824219 C 8.128906 -10.808594 8.058594 -10.769531 7.980469 -10.707031 C 7.832031 -10.585938 7.722656 -10.441406 7.652344 -10.269531 C 7.628906 -10.214844 7.613281 -10.164062 7.605469 -10.117188 C 7.605469 -10.105469 7.601562 -10.097656 7.601562 -10.09375 C 7.601562 -10.09375 7.601562 -10.101562 7.601562 -10.109375 C 7.601562 -10.121094 7.601562 -10.128906 7.601562 -10.132812 C 7.601562 -10.128906 7.601562 -10.125 7.605469 -10.117188 C 7.613281 -10.070312 7.628906 -10.023438 7.648438 -9.96875 C 7.726562 -9.785156 7.84375 -9.632812 8.003906 -9.503906 C 8.082031 -9.445312 8.144531 -9.40625 8.199219 -9.390625 C 8.144531 -9.40625 8.046875 -9.414062 7.914062 -9.414062 L 5.289062 -9.414062 L 5.289062 -12.027344 L 7.902344 -12.027344 L 7.902344 -8.1875 L 5.289062 -8.1875 Z M 2.675781 -5.578125 L 2.675781 -14.640625 L 7.914062 -14.640625 C 9.253906 -14.640625 10.359375 -14.296875 11.234375 -13.613281 C 11.792969 -13.175781 12.207031 -12.621094 12.480469 -11.957031 C 12.714844 -11.394531 12.828125 -10.78125 12.828125 -10.109375 C 12.828125 -9.441406 12.710938 -8.828125 12.480469 -8.269531 C 12.210938 -7.617188 11.800781 -7.070312 11.253906 -6.632812 C 10.378906 -5.929688 9.265625 -5.578125 7.914062 -5.578125 Z M 2.675781 -5.578125 "/></g></g><g style="fill:#ffffff;fill-opacity:1;"><g transform="translate(154.646253, 44.226677)"><path style="stroke:none" d="M 8.617188 2.847656 C 6.640625 2.847656 4.875 2.414062 3.328125 1.542969 C 1.738281 0.648438 0.503906 -0.601562 -0.367188 -2.207031 C -1.210938 -3.761719 -1.632812 -5.535156 -1.632812 -7.527344 C -1.632812 -9.015625 -1.394531 -10.382812 -0.917969 -11.636719 C -0.421875 -12.933594 0.289062 -14.050781 1.222656 -14.996094 C 2.160156 -15.945312 3.273438 -16.667969 4.558594 -17.164062 C 5.800781 -17.644531 7.152344 -17.882812 8.617188 -17.882812 C 10.589844 -17.882812 12.347656 -17.453125 13.890625 -16.589844 C 15.46875 -15.707031 16.699219 -14.46875 17.578125 -12.875 C 18.433594 -11.324219 18.863281 -9.542969 18.863281 -7.527344 C 18.863281 -6.042969 18.625 -4.671875 18.148438 -3.421875 C 17.65625 -2.128906 16.945312 -1.007812 16.015625 -0.0585938 C 15.078125 0.902344 13.960938 1.628906 12.671875 2.128906 C 11.429688 2.609375 10.078125 2.847656 8.617188 2.847656 Z M 8.617188 -2.378906 C 9.429688 -2.378906 10.152344 -2.5 10.789062 -2.746094 C 11.375 -2.972656 11.871094 -3.296875 12.285156 -3.714844 C 12.703125 -4.144531 13.03125 -4.667969 13.265625 -5.28125 C 13.511719 -5.933594 13.636719 -6.683594 13.636719 -7.527344 C 13.636719 -8.644531 13.425781 -9.582031 13.003906 -10.347656 C 12.605469 -11.074219 12.050781 -11.632812 11.339844 -12.03125 C 10.589844 -12.449219 9.683594 -12.65625 8.617188 -12.65625 C 7.804688 -12.65625 7.078125 -12.535156 6.445312 -12.289062 C 5.855469 -12.058594 5.351562 -11.738281 4.9375 -11.320312 C 4.523438 -10.898438 4.199219 -10.386719 3.96875 -9.777344 C 3.71875 -9.125 3.59375 -8.375 3.59375 -7.527344 C 3.59375 -6.421875 3.804688 -5.476562 4.226562 -4.703125 C 4.621094 -3.976562 5.171875 -3.414062 5.886719 -3.015625 C 6.640625 -2.589844 7.550781 -2.378906 8.617188 -2.378906 Z M 8.617188 -5.664062 C 8.835938 -5.664062 8.988281 -5.691406 9.074219 -5.746094 C 9.171875 -5.816406 9.261719 -5.945312 9.347656 -6.140625 C 9.492188 -6.484375 9.5625 -6.945312 9.5625 -7.527344 C 9.5625 -7.988281 9.519531 -8.375 9.429688 -8.6875 C 9.371094 -8.898438 9.292969 -9.0625 9.199219 -9.179688 C 9.148438 -9.242188 9.097656 -9.285156 9.046875 -9.308594 C 8.949219 -9.351562 8.804688 -9.371094 8.617188 -9.371094 C 8.394531 -9.371094 8.234375 -9.339844 8.136719 -9.277344 C 8.042969 -9.214844 7.957031 -9.09375 7.882812 -8.917969 C 7.738281 -8.585938 7.667969 -8.121094 7.667969 -7.527344 C 7.667969 -7.066406 7.710938 -6.679688 7.800781 -6.363281 C 7.863281 -6.148438 7.941406 -5.980469 8.039062 -5.855469 C 8.089844 -5.792969 8.140625 -5.75 8.191406 -5.726562 C 8.289062 -5.683594 8.429688 -5.664062 8.617188 -5.664062 Z M 8.617188 -0.4375 C 7.679688 -0.4375 6.820312 -0.613281 6.042969 -0.964844 C 5.21875 -1.335938 4.519531 -1.882812 3.945312 -2.609375 C 2.941406 -3.875 2.441406 -5.515625 2.441406 -7.527344 C 2.441406 -8.839844 2.65625 -9.992188 3.082031 -10.980469 C 3.574219 -12.125 4.304688 -13.015625 5.277344 -13.652344 C 6.246094 -14.28125 7.359375 -14.597656 8.617188 -14.597656 C 9.550781 -14.597656 10.402344 -14.425781 11.179688 -14.078125 C 12.003906 -13.710938 12.703125 -13.164062 13.28125 -12.445312 C 14.285156 -11.1875 14.789062 -9.546875 14.789062 -7.527344 C 14.789062 -6.234375 14.578125 -5.089844 14.15625 -4.09375 C 13.667969 -2.953125 12.949219 -2.0625 12 -1.417969 C 11.03125 -0.765625 9.902344 -0.4375 8.617188 -0.4375 Z M 8.617188 -0.4375 "/></g></g><g style="fill:#ffffff;fill-opacity:1;"><g transform="translate(170.682636, 44.226677)"><path style="stroke:none" d="M 3.328125 2.804688 C 2.710938 2.804688 2.136719 2.710938 1.609375 2.519531 C 0.992188 2.296875 0.460938 1.957031 0.0117188 1.496094 C -0.433594 1.042969 -0.765625 0.507812 -0.976562 -0.109375 C -1.15625 -0.632812 -1.25 -1.199219 -1.25 -1.8125 L -1.25 -13.222656 C -1.25 -13.839844 -1.160156 -14.410156 -0.980469 -14.933594 C -0.761719 -15.5625 -0.425781 -16.105469 0.0273438 -16.5625 C 0.480469 -17.011719 1.011719 -17.347656 1.625 -17.5625 C 2.148438 -17.746094 2.714844 -17.839844 3.328125 -17.839844 C 3.941406 -17.839844 4.511719 -17.75 5.035156 -17.566406 C 5.664062 -17.34375 6.203125 -17.003906 6.65625 -16.542969 C 7.101562 -16.085938 7.429688 -15.546875 7.640625 -14.917969 C 7.816406 -14.398438 7.902344 -13.835938 7.902344 -13.222656 L 7.902344 -1.8125 C 7.902344 -0.484375 7.503906 0.605469 6.703125 1.457031 C 6.25 1.941406 5.703125 2.296875 5.058594 2.523438 C 4.53125 2.710938 3.953125 2.804688 3.328125 2.804688 Z M 3.328125 -2.421875 C 3.359375 -2.421875 3.382812 -2.421875 3.394531 -2.425781 C 3.371094 -2.421875 3.34375 -2.414062 3.3125 -2.402344 C 3.15625 -2.347656 3.019531 -2.253906 2.894531 -2.117188 C 2.792969 -2.011719 2.726562 -1.902344 2.6875 -1.785156 C 2.679688 -1.761719 2.671875 -1.742188 2.671875 -1.734375 C 2.675781 -1.75 2.675781 -1.777344 2.675781 -1.8125 L 2.675781 -13.222656 C 2.675781 -13.261719 2.675781 -13.289062 2.671875 -13.308594 C 2.671875 -13.296875 2.679688 -13.277344 2.6875 -13.253906 C 2.730469 -13.125 2.808594 -13.003906 2.921875 -12.886719 C 3.039062 -12.765625 3.167969 -12.683594 3.308594 -12.632812 C 3.339844 -12.621094 3.367188 -12.613281 3.386719 -12.613281 C 3.375 -12.613281 3.355469 -12.613281 3.328125 -12.613281 C 3.304688 -12.613281 3.289062 -12.613281 3.28125 -12.613281 C 3.304688 -12.617188 3.332031 -12.625 3.363281 -12.636719 C 3.496094 -12.679688 3.617188 -12.757812 3.722656 -12.867188 C 3.839844 -12.980469 3.917969 -13.105469 3.964844 -13.238281 C 3.972656 -13.265625 3.980469 -13.285156 3.980469 -13.300781 C 3.980469 -13.285156 3.976562 -13.257812 3.976562 -13.222656 L 3.976562 -1.8125 C 3.976562 -1.78125 3.980469 -1.761719 3.980469 -1.75 C 3.976562 -1.765625 3.972656 -1.789062 3.960938 -1.816406 C 3.921875 -1.9375 3.847656 -2.054688 3.742188 -2.160156 C 3.636719 -2.269531 3.515625 -2.347656 3.382812 -2.398438 C 3.34375 -2.410156 3.316406 -2.417969 3.289062 -2.421875 C 3.292969 -2.421875 3.304688 -2.421875 3.328125 -2.421875 Z M 3.328125 -2.421875 "/></g></g><g style="fill:#ffffff;fill-opacity:1;"><g transform="translate(176.162951, 44.226677)"><path style="stroke:none" d="M 3.199219 2.804688 C 2.609375 2.804688 2.0625 2.71875 1.558594 2.546875 C 0.953125 2.335938 0.425781 2.011719 -0.0117188 1.570312 C -0.457031 1.125 -0.785156 0.597656 -0.992188 -0.0195312 C -1.164062 -0.523438 -1.25 -1.070312 -1.25 -1.664062 L -1.25 -13.285156 C -1.25 -14.601562 -0.855469 -15.675781 -0.0742188 -16.511719 C 0.34375 -16.957031 0.835938 -17.296875 1.398438 -17.523438 C 1.917969 -17.734375 2.476562 -17.839844 3.070312 -17.839844 C 4.054688 -17.839844 4.890625 -17.609375 5.585938 -17.144531 C 6.074219 -16.820312 6.558594 -16.347656 7.046875 -15.734375 L 17.191406 -3.058594 L 8.539062 -3.058594 L 8.539062 -13.394531 C 8.539062 -13.976562 8.625 -14.515625 8.792969 -15.015625 C 8.996094 -15.621094 9.3125 -16.144531 9.742188 -16.585938 C 10.183594 -17.035156 10.710938 -17.367188 11.324219 -17.578125 C 11.828125 -17.753906 12.375 -17.839844 12.964844 -17.839844 C 13.558594 -17.839844 14.105469 -17.753906 14.609375 -17.578125 C 15.222656 -17.367188 15.75 -17.035156 16.191406 -16.585938 C 16.621094 -16.144531 16.9375 -15.621094 17.140625 -15.015625 C 17.308594 -14.515625 17.390625 -13.976562 17.390625 -13.394531 L 17.390625 -1.578125 C 17.390625 -0.375 17.03125 0.632812 16.304688 1.449219 C 15.898438 1.90625 15.417969 2.25 14.855469 2.484375 C 14.34375 2.699219 13.792969 2.804688 13.203125 2.804688 C 12.207031 2.804688 11.355469 2.578125 10.648438 2.125 C 10.136719 1.796875 9.636719 1.332031 9.148438 0.734375 L -1.015625 -11.996094 L 7.625 -11.996094 L 7.625 -1.664062 C 7.625 -1.078125 7.542969 -0.535156 7.378906 -0.0390625 C 7.175781 0.574219 6.855469 1.105469 6.421875 1.550781 C 5.980469 2 5.453125 2.332031 4.839844 2.542969 C 4.339844 2.71875 3.789062 2.804688 3.199219 2.804688 Z M 3.199219 -2.421875 C 3.214844 -2.421875 3.226562 -2.421875 3.234375 -2.421875 C 3.203125 -2.417969 3.171875 -2.410156 3.128906 -2.394531 C 2.96875 -2.339844 2.820312 -2.242188 2.683594 -2.105469 C 2.554688 -1.972656 2.464844 -1.832031 2.417969 -1.679688 C 2.40625 -1.648438 2.398438 -1.621094 2.394531 -1.601562 C 2.398438 -1.613281 2.398438 -1.632812 2.398438 -1.664062 L 2.398438 -9.382812 L 5.011719 -9.382812 L 5.011719 -6.769531 L 4.414062 -6.769531 L 4.414062 -9.382812 L 6.457031 -11.015625 L 13.199219 -2.566406 C 13.289062 -2.460938 13.363281 -2.375 13.433594 -2.3125 C 13.453125 -2.292969 13.46875 -2.277344 13.484375 -2.265625 C 13.480469 -2.265625 13.476562 -2.269531 13.46875 -2.273438 C 13.355469 -2.347656 13.25 -2.394531 13.148438 -2.417969 C 13.140625 -2.421875 13.128906 -2.421875 13.125 -2.425781 C 13.144531 -2.421875 13.167969 -2.421875 13.203125 -2.421875 C 13.09375 -2.421875 12.976562 -2.394531 12.847656 -2.339844 C 12.671875 -2.265625 12.523438 -2.160156 12.398438 -2.023438 C 12.304688 -1.914062 12.234375 -1.796875 12.191406 -1.671875 C 12.179688 -1.632812 12.171875 -1.601562 12.167969 -1.574219 C 12.167969 -1.566406 12.167969 -1.5625 12.164062 -1.5625 C 12.167969 -1.566406 12.167969 -1.570312 12.167969 -1.578125 L 12.167969 -13.394531 C 12.167969 -13.417969 12.164062 -13.433594 12.164062 -13.4375 C 12.167969 -13.414062 12.175781 -13.386719 12.1875 -13.351562 C 12.238281 -13.199219 12.328125 -13.058594 12.453125 -12.933594 C 12.585938 -12.792969 12.734375 -12.695312 12.898438 -12.640625 C 12.9375 -12.625 12.972656 -12.617188 13 -12.613281 C 12.992188 -12.613281 12.980469 -12.613281 12.964844 -12.613281 C 12.953125 -12.613281 12.941406 -12.613281 12.929688 -12.613281 C 12.960938 -12.617188 12.996094 -12.625 13.035156 -12.640625 C 13.199219 -12.695312 13.347656 -12.792969 13.480469 -12.933594 C 13.605469 -13.058594 13.695312 -13.199219 13.746094 -13.351562 C 13.757812 -13.386719 13.765625 -13.414062 13.769531 -13.4375 C 13.765625 -13.433594 13.765625 -13.417969 13.765625 -13.394531 L 13.765625 -5.671875 L 11.152344 -5.671875 L 11.152344 -8.285156 L 11.75 -8.285156 L 11.75 -5.671875 L 9.710938 -4.039062 L 2.9375 -12.503906 C 2.84375 -12.621094 2.761719 -12.714844 2.695312 -12.78125 C 2.675781 -12.800781 2.660156 -12.8125 2.652344 -12.824219 C 2.660156 -12.816406 2.671875 -12.808594 2.6875 -12.796875 C 2.816406 -12.710938 2.945312 -12.652344 3.070312 -12.621094 C 3.089844 -12.617188 3.109375 -12.613281 3.121094 -12.613281 C 3.109375 -12.613281 3.09375 -12.613281 3.070312 -12.613281 C 3.15625 -12.613281 3.25 -12.636719 3.359375 -12.679688 C 3.507812 -12.742188 3.636719 -12.828125 3.742188 -12.941406 C 3.851562 -13.054688 3.925781 -13.175781 3.964844 -13.304688 C 3.976562 -13.332031 3.980469 -13.347656 3.980469 -13.363281 C 3.980469 -13.34375 3.976562 -13.320312 3.976562 -13.285156 L 3.976562 -1.664062 C 3.976562 -1.636719 3.980469 -1.617188 3.980469 -1.609375 C 3.976562 -1.632812 3.96875 -1.660156 3.957031 -1.695312 C 3.90625 -1.851562 3.8125 -1.992188 3.683594 -2.125 C 3.554688 -2.253906 3.414062 -2.34375 3.257812 -2.398438 C 3.222656 -2.410156 3.1875 -2.417969 3.160156 -2.421875 C 3.167969 -2.421875 3.179688 -2.421875 3.199219 -2.421875 Z M 3.199219 -2.421875 "/></g></g><g style="fill:#ffffff;fill-opacity:1;"><g transform="translate(191.154391, 44.226677)"><path style="stroke:none" d="M 6.867188 2.804688 C 6.25 2.804688 5.675781 2.710938 5.148438 2.519531 C 4.53125 2.296875 4 1.957031 3.550781 1.496094 C 3.109375 1.046875 2.78125 0.515625 2.566406 -0.09375 C 2.382812 -0.617188 2.292969 -1.183594 2.292969 -1.792969 L 2.292969 -11.835938 L 4.90625 -11.835938 L 4.90625 -9.222656 L 1.558594 -9.222656 C 1 -9.222656 0.484375 -9.304688 0.0078125 -9.46875 C -0.570312 -9.671875 -1.074219 -9.980469 -1.496094 -10.40625 C -1.914062 -10.824219 -2.222656 -11.320312 -2.425781 -11.890625 C -2.59375 -12.367188 -2.675781 -12.882812 -2.675781 -13.4375 C -2.675781 -13.992188 -2.59375 -14.511719 -2.429688 -14.988281 C -2.222656 -15.574219 -1.90625 -16.078125 -1.472656 -16.5 C -1.046875 -16.914062 -0.550781 -17.214844 0.0273438 -17.410156 C 0.5 -17.570312 1.007812 -17.648438 1.558594 -17.648438 L 12.175781 -17.648438 C 12.726562 -17.648438 13.234375 -17.570312 13.707031 -17.410156 C 14.28125 -17.214844 14.78125 -16.914062 15.207031 -16.5 C 15.640625 -16.078125 15.957031 -15.574219 16.160156 -14.988281 C 16.328125 -14.511719 16.410156 -13.992188 16.410156 -13.4375 C 16.410156 -12.882812 16.328125 -12.367188 16.160156 -11.890625 C 15.957031 -11.320312 15.648438 -10.824219 15.230469 -10.40625 C 14.808594 -9.980469 14.304688 -9.671875 13.726562 -9.46875 C 13.25 -9.304688 12.734375 -9.222656 12.175781 -9.222656 L 8.828125 -9.222656 L 8.828125 -11.835938 L 11.441406 -11.835938 L 11.441406 -1.792969 C 11.441406 -1.195312 11.355469 -0.636719 11.183594 -0.125 C 10.980469 0.480469 10.667969 1.007812 10.242188 1.457031 C 9.792969 1.941406 9.242188 2.296875 8.601562 2.523438 C 8.070312 2.710938 7.496094 2.804688 6.867188 2.804688 Z M 6.867188 -2.421875 C 6.898438 -2.421875 6.921875 -2.421875 6.933594 -2.425781 C 6.914062 -2.421875 6.886719 -2.414062 6.851562 -2.402344 C 6.699219 -2.347656 6.558594 -2.253906 6.433594 -2.117188 C 6.335938 -2.015625 6.269531 -1.90625 6.230469 -1.789062 C 6.222656 -1.761719 6.214844 -1.742188 6.214844 -1.726562 C 6.214844 -1.742188 6.214844 -1.761719 6.214844 -1.792969 L 6.214844 -14.449219 L 12.175781 -14.449219 C 12.183594 -14.449219 12.183594 -14.449219 12.1875 -14.449219 C 12.179688 -14.449219 12.171875 -14.449219 12.164062 -14.445312 C 12.121094 -14.441406 12.074219 -14.429688 12.019531 -14.410156 C 11.84375 -14.347656 11.679688 -14.246094 11.535156 -14.101562 C 11.394531 -13.957031 11.292969 -13.800781 11.230469 -13.621094 C 11.199219 -13.539062 11.183594 -13.476562 11.183594 -13.4375 C 11.183594 -13.441406 11.183594 -13.441406 11.183594 -13.445312 C 11.1875 -13.4375 11.1875 -13.429688 11.1875 -13.417969 C 11.195312 -13.375 11.207031 -13.324219 11.226562 -13.269531 C 11.292969 -13.082031 11.402344 -12.910156 11.558594 -12.757812 C 11.703125 -12.617188 11.863281 -12.515625 12.039062 -12.457031 C 12.089844 -12.441406 12.132812 -12.429688 12.171875 -12.425781 C 12.179688 -12.421875 12.1875 -12.421875 12.191406 -12.421875 C 12.1875 -12.421875 12.183594 -12.421875 12.175781 -12.421875 L 1.558594 -12.421875 C 1.550781 -12.421875 1.546875 -12.421875 1.542969 -12.421875 C 1.546875 -12.421875 1.554688 -12.421875 1.5625 -12.425781 C 1.601562 -12.429688 1.644531 -12.441406 1.695312 -12.457031 C 1.871094 -12.515625 2.03125 -12.617188 2.175781 -12.757812 C 2.332031 -12.910156 2.441406 -13.082031 2.507812 -13.269531 C 2.527344 -13.324219 2.539062 -13.375 2.546875 -13.417969 C 2.546875 -13.429688 2.546875 -13.4375 2.550781 -13.445312 C 2.550781 -13.441406 2.550781 -13.441406 2.550781 -13.4375 C 2.550781 -13.476562 2.535156 -13.539062 2.503906 -13.621094 C 2.441406 -13.800781 2.339844 -13.957031 2.199219 -14.101562 C 2.054688 -14.246094 1.890625 -14.347656 1.714844 -14.410156 C 1.660156 -14.429688 1.613281 -14.441406 1.570312 -14.445312 C 1.5625 -14.449219 1.554688 -14.449219 1.546875 -14.449219 C 1.550781 -14.449219 1.550781 -14.449219 1.558594 -14.449219 L 7.519531 -14.449219 L 7.519531 -1.792969 C 7.519531 -1.769531 7.519531 -1.753906 7.519531 -1.746094 C 7.515625 -1.765625 7.511719 -1.789062 7.5 -1.820312 C 7.457031 -1.945312 7.382812 -2.054688 7.285156 -2.160156 C 7.175781 -2.269531 7.054688 -2.347656 6.921875 -2.398438 C 6.886719 -2.410156 6.855469 -2.417969 6.828125 -2.421875 C 6.835938 -2.421875 6.847656 -2.421875 6.867188 -2.421875 Z M 6.867188 -2.421875 "/></g></g><g style="fill:#5f6fff;fill-opacity:1;"><g transform="translate(67.939081, 44.226677)"><path style="stroke:none" d="M 3.40625 0 C 2.738281 0 2.226562 -0.171875 1.875 -0.515625 C 1.53125 -0.867188 1.359375 -1.375 1.359375 -2.03125 L 1.359375 -13.015625 C 1.359375 -13.660156 1.53125 -14.15625 1.875 -14.5 C 2.226562 -14.851562 2.738281 -15.03125 3.40625 -15.03125 L 7.59375 -15.03125 C 10.207031 -15.03125 12.226562 -14.375 13.65625 -13.0625 C 15.082031 -11.757812 15.796875 -9.914062 15.796875 -7.53125 C 15.796875 -6.332031 15.609375 -5.265625 15.234375 -4.328125 C 14.867188 -3.398438 14.335938 -2.613281 13.640625 -1.96875 C 12.953125 -1.320312 12.097656 -0.832031 11.078125 -0.5 C 10.066406 -0.164062 8.90625 0 7.59375 0 Z M 5.296875 -3.171875 L 7.34375 -3.171875 C 8.09375 -3.171875 8.738281 -3.265625 9.28125 -3.453125 C 9.832031 -3.640625 10.289062 -3.910156 10.65625 -4.265625 C 11.019531 -4.617188 11.289062 -5.066406 11.46875 -5.609375 C 11.644531 -6.148438 11.734375 -6.789062 11.734375 -7.53125 C 11.734375 -9.007812 11.367188 -10.097656 10.640625 -10.796875 C 9.921875 -11.503906 8.820312 -11.859375 7.34375 -11.859375 L 5.296875 -11.859375 Z M 5.296875 -3.171875 "/></g></g><g style="fill:#5f6fff;fill-opacity:1;"><g transform="translate(83.527633, 44.226677)"><path style="stroke:none" d="M 8.609375 0.234375 C 7.085938 0.234375 5.75 -0.0859375 4.59375 -0.734375 C 3.445312 -1.378906 2.554688 -2.285156 1.921875 -3.453125 C 1.296875 -4.617188 0.984375 -5.976562 0.984375 -7.53125 C 0.984375 -8.695312 1.160156 -9.753906 1.515625 -10.703125 C 1.878906 -11.660156 2.398438 -12.476562 3.078125 -13.15625 C 3.753906 -13.84375 4.5625 -14.363281 5.5 -14.71875 C 6.4375 -15.082031 7.472656 -15.265625 8.609375 -15.265625 C 10.140625 -15.265625 11.472656 -14.941406 12.609375 -14.296875 C 13.753906 -13.660156 14.644531 -12.765625 15.28125 -11.609375 C 15.925781 -10.453125 16.25 -9.09375 16.25 -7.53125 C 16.25 -6.363281 16.066406 -5.300781 15.703125 -4.34375 C 15.347656 -3.394531 14.832031 -2.578125 14.15625 -1.890625 C 13.476562 -1.203125 12.671875 -0.675781 11.734375 -0.3125 C 10.796875 0.0507812 9.753906 0.234375 8.609375 0.234375 Z M 8.609375 -3.046875 C 9.367188 -3.046875 10.007812 -3.222656 10.53125 -3.578125 C 11.0625 -3.929688 11.46875 -4.441406 11.75 -5.109375 C 12.03125 -5.785156 12.171875 -6.59375 12.171875 -7.53125 C 12.171875 -8.9375 11.859375 -10.03125 11.234375 -10.8125 C 10.609375 -11.59375 9.734375 -11.984375 8.609375 -11.984375 C 7.867188 -11.984375 7.234375 -11.804688 6.703125 -11.453125 C 6.171875 -11.109375 5.765625 -10.601562 5.484375 -9.9375 C 5.203125 -9.28125 5.0625 -8.476562 5.0625 -7.53125 C 5.0625 -6.125 5.375 -5.023438 6 -4.234375 C 6.625 -3.441406 7.492188 -3.046875 8.609375 -3.046875 Z M 8.609375 -3.046875 "/></g></g><g style="fill:#5f6fff;fill-opacity:1;"><g transform="translate(99.564016, 44.226677)"><path style="stroke:none" d="M 8.953125 0.234375 C 7.296875 0.234375 5.867188 -0.0820312 4.671875 -0.71875 C 3.472656 -1.363281 2.554688 -2.269531 1.921875 -3.4375 C 1.296875 -4.601562 0.984375 -5.96875 0.984375 -7.53125 C 0.984375 -8.695312 1.160156 -9.753906 1.515625 -10.703125 C 1.878906 -11.660156 2.40625 -12.476562 3.09375 -13.15625 C 3.789062 -13.84375 4.632812 -14.363281 5.625 -14.71875 C 6.613281 -15.082031 7.722656 -15.265625 8.953125 -15.265625 C 9.609375 -15.265625 10.285156 -15.191406 10.984375 -15.046875 C 11.691406 -14.898438 12.316406 -14.675781 12.859375 -14.375 C 13.253906 -14.164062 13.53125 -13.894531 13.6875 -13.5625 C 13.84375 -13.238281 13.894531 -12.90625 13.84375 -12.5625 C 13.800781 -12.21875 13.679688 -11.910156 13.484375 -11.640625 C 13.285156 -11.367188 13.03125 -11.1875 12.71875 -11.09375 C 12.40625 -11.007812 12.0625 -11.054688 11.6875 -11.234375 C 11.257812 -11.429688 10.835938 -11.582031 10.421875 -11.6875 C 10.003906 -11.800781 9.566406 -11.859375 9.109375 -11.859375 C 8.222656 -11.859375 7.484375 -11.691406 6.890625 -11.359375 C 6.304688 -11.023438 5.863281 -10.535156 5.5625 -9.890625 C 5.269531 -9.253906 5.125 -8.46875 5.125 -7.53125 C 5.125 -6.59375 5.269531 -5.800781 5.5625 -5.15625 C 5.863281 -4.507812 6.304688 -4.015625 6.890625 -3.671875 C 7.484375 -3.335938 8.222656 -3.171875 9.109375 -3.171875 C 9.472656 -3.171875 9.867188 -3.21875 10.296875 -3.3125 C 10.722656 -3.40625 11.144531 -3.550781 11.5625 -3.75 C 11.988281 -3.9375 12.367188 -3.988281 12.703125 -3.90625 C 13.035156 -3.820312 13.304688 -3.648438 13.515625 -3.390625 C 13.722656 -3.128906 13.851562 -2.832031 13.90625 -2.5 C 13.957031 -2.164062 13.910156 -1.835938 13.765625 -1.515625 C 13.617188 -1.191406 13.359375 -0.925781 12.984375 -0.71875 C 12.492188 -0.425781 11.878906 -0.191406 11.140625 -0.015625 C 10.410156 0.148438 9.679688 0.234375 8.953125 0.234375 Z M 8.953125 0.234375 "/></g></g><g style="fill:#5f6fff;fill-opacity:1;"><g transform="translate(113.062676, 44.226677)"><path style="stroke:none" d="M 2.0625 0.1875 C 1.625 0.1875 1.253906 0.0859375 0.953125 -0.109375 C 0.660156 -0.316406 0.476562 -0.601562 0.40625 -0.96875 C 0.332031 -1.332031 0.394531 -1.742188 0.59375 -2.203125 L 5.90625 -13.625 C 6.164062 -14.175781 6.484375 -14.582031 6.859375 -14.84375 C 7.234375 -15.101562 7.660156 -15.234375 8.140625 -15.234375 C 8.628906 -15.234375 9.050781 -15.101562 9.40625 -14.84375 C 9.769531 -14.582031 10.085938 -14.175781 10.359375 -13.625 L 15.671875 -2.203125 C 15.898438 -1.742188 15.984375 -1.328125 15.921875 -0.953125 C 15.859375 -0.585938 15.679688 -0.304688 15.390625 -0.109375 C 15.097656 0.0859375 14.738281 0.1875 14.3125 0.1875 C 13.738281 0.1875 13.300781 0.0625 13 -0.1875 C 12.695312 -0.445312 12.421875 -0.859375 12.171875 -1.421875 L 11.03125 -4.140625 L 12.515625 -3.046875 L 3.734375 -3.046875 L 5.25 -4.140625 L 4.09375 -1.421875 C 3.84375 -0.859375 3.582031 -0.445312 3.3125 -0.1875 C 3.039062 0.0625 2.625 0.1875 2.0625 0.1875 Z M 8.109375 -10.9375 L 5.625 -5.03125 L 5.03125 -6.0625 L 11.234375 -6.0625 L 10.640625 -5.03125 L 8.140625 -10.9375 Z M 8.109375 -10.9375 "/></g></g><g style="fill:#5f6fff;fill-opacity:1;"><g transform="translate(128.160742, 44.226677)"><path style="stroke:none" d="M 3.328125 0.1875 C 2.703125 0.1875 2.21875 0.015625 1.875 -0.328125 C 1.53125 -0.679688 1.359375 -1.171875 1.359375 -1.796875 L 1.359375 -13.046875 C 1.359375 -13.691406 1.53125 -14.179688 1.875 -14.515625 C 2.226562 -14.859375 2.71875 -15.03125 3.34375 -15.03125 L 8.59375 -15.03125 C 10.300781 -15.03125 11.617188 -14.59375 12.546875 -13.71875 C 13.484375 -12.84375 13.953125 -11.640625 13.953125 -10.109375 C 13.953125 -8.578125 13.484375 -7.375 12.546875 -6.5 C 11.617188 -5.625 10.300781 -5.1875 8.59375 -5.1875 L 5.296875 -5.1875 L 5.296875 -1.796875 C 5.296875 -1.171875 5.128906 -0.679688 4.796875 -0.328125 C 4.472656 0.015625 3.984375 0.1875 3.328125 0.1875 Z M 5.296875 -8.1875 L 7.90625 -8.1875 C 8.644531 -8.1875 9.210938 -8.347656 9.609375 -8.671875 C 10.015625 -8.992188 10.21875 -9.472656 10.21875 -10.109375 C 10.21875 -10.765625 10.015625 -11.25 9.609375 -11.5625 C 9.210938 -11.875 8.644531 -12.03125 7.90625 -12.03125 L 5.296875 -12.03125 Z M 5.296875 -8.1875 "/></g></g><g style="fill:#5f6fff;fill-opacity:1;"><g transform="translate(141.403497, 44.226677)"><path style="stroke:none" d="M 3.328125 0.1875 C 2.703125 0.1875 2.21875 0.015625 1.875 -0.328125 C 1.53125 -0.679688 1.359375 -1.171875 1.359375 -1.796875 L 1.359375 -13.046875 C 1.359375 -13.691406 1.53125 -14.179688 1.875 -14.515625 C 2.226562 -14.859375 2.71875 -15.03125 3.34375 -15.03125 L 8.59375 -15.03125 C 10.300781 -15.03125 11.617188 -14.59375 12.546875 -13.71875 C 13.484375 -12.84375 13.953125 -11.640625 13.953125 -10.109375 C 13.953125 -8.578125 13.484375 -7.375 12.546875 -6.5 C 11.617188 -5.625 10.300781 -5.1875 8.59375 -5.1875 L 5.296875 -5.1875 L 5.296875 -1.796875 C 5.296875 -1.171875 5.128906 -0.679688 4.796875 -0.328125 C 4.472656 0.015625 3.984375 0.1875 3.328125 0.1875 Z M 5.296875 -8.1875 L 7.90625 -8.1875 C 8.644531 -8.1875 9.210938 -8.347656 9.609375 -8.671875 C 10.015625 -8.992188 10.21875 -9.472656 10.21875 -10.109375 C 10.21875 -10.765625 10.015625 -11.25 9.609375 -11.5625 C 9.210938 -11.875 8.644531 -12.03125 7.90625 -12.03125 L 5.296875 -12.03125 Z M 5.296875 -8.1875 "/></g></g><g style="fill:#5f6fff;fill-opacity:1;"><g transform="translate(154.646253, 44.226677)"><path style="stroke:none" d="M 8.609375 0.234375 C 7.085938 0.234375 5.75 -0.0859375 4.59375 -0.734375 C 3.445312 -1.378906 2.554688 -2.285156 1.921875 -3.453125 C 1.296875 -4.617188 0.984375 -5.976562 0.984375 -7.53125 C 0.984375 -8.695312 1.160156 -9.753906 1.515625 -10.703125 C 1.878906 -11.660156 2.398438 -12.476562 3.078125 -13.15625 C 3.753906 -13.84375 4.5625 -14.363281 5.5 -14.71875 C 6.4375 -15.082031 7.472656 -15.265625 8.609375 -15.265625 C 10.140625 -15.265625 11.472656 -14.941406 12.609375 -14.296875 C 13.753906 -13.660156 14.644531 -12.765625 15.28125 -11.609375 C 15.925781 -10.453125 16.25 -9.09375 16.25 -7.53125 C 16.25 -6.363281 16.066406 -5.300781 15.703125 -4.34375 C 15.347656 -3.394531 14.832031 -2.578125 14.15625 -1.890625 C 13.476562 -1.203125 12.671875 -0.675781 11.734375 -0.3125 C 10.796875 0.0507812 9.753906 0.234375 8.609375 0.234375 Z M 8.609375 -3.046875 C 9.367188 -3.046875 10.007812 -3.222656 10.53125 -3.578125 C 11.0625 -3.929688 11.46875 -4.441406 11.75 -5.109375 C 12.03125 -5.785156 12.171875 -6.59375 12.171875 -7.53125 C 12.171875 -8.9375 11.859375 -10.03125 11.234375 -10.8125 C 10.609375 -11.59375 9.734375 -11.984375 8.609375 -11.984375 C 7.867188 -11.984375 7.234375 -11.804688 6.703125 -11.453125 C 6.171875 -11.109375 5.765625 -10.601562 5.484375 -9.9375 C 5.203125 -9.28125 5.0625 -8.476562 5.0625 -7.53125 C 5.0625 -6.125 5.375 -5.023438 6 -4.234375 C 6.625 -3.441406 7.492188 -3.046875 8.609375 -3.046875 Z M 8.609375 -3.046875 "/></g></g><g style="fill:#5f6fff;fill-opacity:1;"><g transform="translate(170.682636, 44.226677)"><path style="stroke:none" d="M 3.328125 0.1875 C 2.703125 0.1875 2.21875 0.015625 1.875 -0.328125 C 1.53125 -0.679688 1.359375 -1.175781 1.359375 -1.8125 L 1.359375 -13.21875 C 1.359375 -13.875 1.53125 -14.375 1.875 -14.71875 C 2.21875 -15.0625 2.703125 -15.234375 3.328125 -15.234375 C 3.960938 -15.234375 4.445312 -15.0625 4.78125 -14.71875 C 5.125 -14.375 5.296875 -13.875 5.296875 -13.21875 L 5.296875 -1.8125 C 5.296875 -1.175781 5.128906 -0.679688 4.796875 -0.328125 C 4.472656 0.015625 3.984375 0.1875 3.328125 0.1875 Z M 3.328125 0.1875 "/></g></g><g style="fill:#5f6fff;fill-opacity:1;"><g transform="translate(176.162951, 44.226677)"><path style="stroke:none" d="M 3.203125 0.1875 C 2.597656 0.1875 2.140625 0.03125 1.828125 -0.28125 C 1.515625 -0.59375 1.359375 -1.050781 1.359375 -1.65625 L 1.359375 -13.28125 C 1.359375 -13.90625 1.515625 -14.382812 1.828125 -14.71875 C 2.140625 -15.0625 2.554688 -15.234375 3.078125 -15.234375 C 3.523438 -15.234375 3.875 -15.144531 4.125 -14.96875 C 4.382812 -14.800781 4.671875 -14.519531 4.984375 -14.125 L 11.75 -5.671875 L 11.15625 -5.671875 L 11.15625 -13.390625 C 11.15625 -13.992188 11.304688 -14.453125 11.609375 -14.765625 C 11.921875 -15.078125 12.375 -15.234375 12.96875 -15.234375 C 13.5625 -15.234375 14.007812 -15.078125 14.3125 -14.765625 C 14.625 -14.453125 14.78125 -13.992188 14.78125 -13.390625 L 14.78125 -1.578125 C 14.78125 -1.035156 14.632812 -0.601562 14.34375 -0.28125 C 14.0625 0.03125 13.679688 0.1875 13.203125 0.1875 C 12.722656 0.1875 12.34375 0.0976562 12.0625 -0.078125 C 11.78125 -0.253906 11.484375 -0.535156 11.171875 -0.921875 L 4.421875 -9.390625 L 5.015625 -9.390625 L 5.015625 -1.65625 C 5.015625 -1.050781 4.859375 -0.59375 4.546875 -0.28125 C 4.242188 0.03125 3.796875 0.1875 3.203125 0.1875 Z M 3.203125 0.1875 "/></g></g><g style="fill:#5f6fff;fill-opacity:1;"><g transform="translate(191.154391, 44.226677)"><path style="stroke:none" d="M 6.875 0.1875 C 6.238281 0.1875 5.75 0.015625 5.40625 -0.328125 C 5.070312 -0.679688 4.90625 -1.171875 4.90625 -1.796875 L 4.90625 -11.84375 L 1.5625 -11.84375 C 1.03125 -11.84375 0.625 -11.976562 0.34375 -12.25 C 0.0703125 -12.53125 -0.0625 -12.925781 -0.0625 -13.4375 C -0.0625 -13.957031 0.0703125 -14.351562 0.34375 -14.625 C 0.625 -14.894531 1.03125 -15.03125 1.5625 -15.03125 L 12.171875 -15.03125 C 12.703125 -15.03125 13.101562 -14.894531 13.375 -14.625 C 13.65625 -14.351562 13.796875 -13.957031 13.796875 -13.4375 C 13.796875 -12.925781 13.65625 -12.53125 13.375 -12.25 C 13.101562 -11.976562 12.703125 -11.84375 12.171875 -11.84375 L 8.828125 -11.84375 L 8.828125 -1.796875 C 8.828125 -1.171875 8.660156 -0.679688 8.328125 -0.328125 C 8.003906 0.015625 7.519531 0.1875 6.875 0.1875 Z M 6.875 0.1875 "/></g></g></g></svg>